<?xml version="1.0" standalone="yes"?>
<svg xmlns="http://www.w3.org/2000/svg" width="674" height="962">
<path style="fill:#000000; stroke:none;" d="M158 456C153.667 467.57 153.31 481.765 151.845 494C149.132 516.659 146.477 539.251 144.91 562C138.073 661.285 140.305 759.628 176.192 854C183.654 873.623 192.275 894.554 205.619 911C229.45 940.37 277.146 963.189 315 951.964C368.033 936.237 391.439 883.688 409.424 836C436.205 764.986 447.279 691.623 458.272 617C464.896 572.033 473.05 525.414 475 480C499.538 481.937 521.985 482.106 546 475.29C564.565 470.021 583.051 463.443 599 452.279C615.228 440.918 632.438 424.469 643.481 408C659.906 383.505 664.774 351.852 666.039 323C666.515 312.16 668.649 300.84 667.911 290C664.406 238.532 648.169 192.36 626.298 146C608.609 108.505 586.33 71.4158 560.449 39C552.667 29.2524 544.185 11.1155 530 10.0548C495.097 7.44482 459.011 10 424 10L212 10L135 10C124.431 10 111.295 7.33325 103.015 15.0941C92.0362 25.3832 85.5242 40.6426 79.2191 54C66.3789 81.2021 56.2818 109.465 46.8326 138C23.5156 208.413 -1.38526 287.934 17.1265 362C25.5295 395.621 44.6593 432.195 78 446.572C104.19 457.865 130.367 456 158 456z"/>
<path style="fill:#ffffff; stroke:none;" d="M159 454C151.031 495.092 147.762 537.357 144.91 579C138.741 669.096 143.719 759.069 174.142 845C182.297 868.035 192.283 892.888 208 911.907C229.72 938.19 273.398 959.416 308 952.334C363.204 941.036 387.147 888.282 406 841C436.776 763.814 448.521 681.832 459.282 600C464.576 559.734 472.257 518.584 474 478C498.575 484.358 525.982 479.893 550 473C567.562 467.96 585.077 460.82 600 450.124C618.516 436.852 638.292 417.467 648.564 397C660.682 372.854 663.275 345.472 665.089 319C670.074 246.282 644.464 180.996 610.309 118C594.987 89.7408 577.472 62.0352 557.262 37C550.216 28.2732 543.944 14.3887 532 11.4189C522.038 8.94177 509.254 11 499 11L429 11L207 11L134 11C122.123 11 110.432 8.69983 101.666 18.2894C76.5507 45.7629 64.8401 89.5678 52.9221 124C27.8682 196.383 1.15818 278.014 16.8009 355C24.8295 394.513 47.2907 436.311 88 448.974C111.95 456.425 134.481 455.053 159 454z"/>
<path style="fill:#000000; stroke:none;" d="M179 421C174.344 457.807 165.755 493.981 162.17 531C156.921 585.204 155.187 639.626 158.91 694C161.016 724.74 165.702 754.534 170.177 785C170.799 789.24 167.643 792.907 168.492 796.896C169.332 800.848 173.965 802.989 175.316 807.004C193.84 862.071 216.342 924.986 283.91 931.735C347.498 938.087 366.719 874.189 386.826 827.005C388.66 822.701 392.99 821.631 394.928 817.86C396.705 814.402 393.281 810.74 394.095 806.985C396.489 795.948 401.164 784.754 404.67 774C427.047 705.345 437.007 633.632 444.169 562C447.735 526.332 454.703 489.847 455 454C514.319 473.295 587.469 449.559 623.791 398C639.883 375.157 647.018 348.628 648.911 321C654.575 238.292 623.08 166.844 580.424 98C566.233 75.0954 552.237 47.5612 533.384 28.1481C528.812 23.44 521.022 25 515 25L469 25L283 25L154 25L122 25C118.083 25 112.991 24.0695 110.105 27.3179C104.807 33.2803 101.978 42.822 98.6914 50C90.5262 67.8324 82.8839 85.7915 75.6003 104C55.9759 153.059 40.3097 203.853 31.5648 256C26.4259 286.644 23.2459 318.126 28.4352 349C32.8562 375.303 44.1819 401.26 65 418.675C94.5348 443.383 148.482 444.455 179 421z"/>
<path style="fill:#ffffff; stroke:none;" d="M382 808C393.309 766.567 409.413 726.63 416.565 684C429.176 608.827 436.623 532.786 443.83 457C444.288 452.191 442.318 447.585 442.677 443C443.183 436.564 446.179 429.814 446.83 423C449.305 397.105 449.192 370.771 452.576 345C457.332 308.771 456 270.544 456 234C456 225.349 456.112 216.689 455.951 208.039C455.89 204.79 456.06 200.634 460.052 199.748C468.965 197.768 466.949 214.369 467.004 219C467.268 241.178 468.942 263.81 466.83 286C463.277 323.336 461.784 361.51 459.961 399C459.419 410.163 453.013 430.426 457.603 440.775C459.197 444.368 464.59 445.434 468 446.36C478.707 449.265 488.961 450.001 500 450C543.609 449.997 590.813 425.681 615.792 390C636.651 360.203 640.533 321.336 637.17 286C635.526 268.725 635.717 251.04 631.765 234C621.589 190.129 598.357 149.243 575.4 111C564.169 92.292 552.312 73.8773 539.798 56C535.819 50.3162 530.704 39.2078 523.961 36.6034C517.898 34.2616 508.448 36 502 36L453 36L285 36L161 36L130 36C126.308 36 120.638 34.9586 117.637 37.6034C112.709 41.9474 110.507 51.1912 107.745 57C99.0219 75.3441 91.8666 94.245 84.1389 113C56.3479 180.448 31.0735 261.308 37.9252 335C41.0509 368.618 56.3806 410.37 92 421.407C117.719 429.376 166.442 431.065 180.697 402C184.307 394.64 183.405 384.009 184.17 376C186.143 355.344 186.673 334.68 188.09 314C189.341 295.721 189.904 277.344 190.001 259C190.022 254.968 192.101 243.557 198.707 248.623C204.197 252.832 201 271.586 201 278C201 308.069 197.401 338.007 196.039 368C194.232 407.818 184.94 446.658 179.271 486C169.528 553.614 163.339 623.791 169.83 692C172.216 717.069 173.879 742.069 178.081 767C179.141 773.29 179.342 788.652 184.564 792.86C188.397 795.949 195.361 795.785 200 796.424C214.14 798.371 228.734 799 243 799C277.062 799 312.092 799.941 346 803.17C357.999 804.312 369.986 807.484 382 808z"/>
<path style="fill:#000000; stroke:none;" d="M219 49C219.927 53.004 229.008 75.9764 233 64L229 65L222 49L219 49M326 49L327 69L328 69C330.467 62.4122 331.593 54.169 326 49M363 49L356 72C362.917 66.1146 365.976 57.8677 366 49L363 49M154 50L142 73C148.682 70.7996 156.542 56.8484 156 50L154 50M193 50C188.813 58.9721 189.775 71.8403 201 75L193.623 61L195 50L193 50M413 50L400 69C407.112 66.7824 415.898 57.7997 415 50L413 50M293 52C293.001 61.5438 294.007 72.3792 305 75L296 52L293 52M471 52L473 71L475 71C476.669 63.9887 477.043 56.7902 471 52M505 52L494 74C502.008 70.0953 506.085 60.2744 508 52L505 52M521 53L526 72L529 72L523 53L521 53M119 55C116.621 60.8391 115.158 65.7698 117 72L118 72L122 55L119 55M249 56C250.948 62.8644 252.89 73.8552 262 73L262 71C255.265 67.4222 254.284 61.6888 252 55L249 56M433 55L432 58C439.128 62.5431 443.249 68.4578 444 77L447 77C446.575 67.2441 442.151 59.0278 433 55M417 127C415.479 114.964 414.047 96.6289 431.996 102.394C436.331 103.787 445.022 119.494 449.106 110.772C450.329 108.161 450.008 104.801 449.999 102C449.922 78.5773 430.472 87.9989 414 88C407.346 88.0004 396.328 85.8929 390.228 88.7423C381.526 92.8076 392.606 102.205 393.66 107.004C397.201 123.136 396.986 145.749 394.245 162C393.26 167.842 382.618 178.151 390.228 182.682C399.666 188.302 422.125 183.983 433 184C436.746 184.006 443.335 185.963 446.606 183.958C453.124 179.961 456.794 159.572 452.972 153.149C451.335 150.397 448.122 149.821 445.995 152.323C441.229 157.927 430.836 179.532 419.589 166.682C416.574 163.238 414.028 142.207 421.04 142.207C427.377 142.207 425.276 151.296 428.726 153.953C430.851 155.589 433.037 153.714 434.08 151.852C438.691 143.624 437.415 130.911 436.13 122C435.702 119.034 435.205 112.867 431 112.867C425.857 112.867 426.703 120.764 425.262 123.852C423.7 127.197 420.161 126.963 417 127M169 140C175.418 148.412 177.236 161.879 180.141 172C181.425 176.473 182.764 183.25 188.042 184.547C196.663 186.665 198.792 172.709 200.421 167C205.638 148.723 210.063 130.228 215.424 112C217.109 106.272 223.559 99.0125 222.333 93.0038C220.038 81.7565 194.585 84.0277 197.697 95.9606C198.576 99.3312 201.948 101.27 202.833 104.59C204.673 111.488 199.413 122.156 198 129L195 129C192.936 121.437 188.053 113.247 188.009 105.286C187.979 99.8831 194.303 95.9122 189.99 90.4189C184.269 83.1318 158.275 83.3423 154.937 93.0432C152.809 99.2263 160.124 104.389 161.592 110C163.499 117.292 159.881 124.106 158 131L156 131C154.05 122.569 149.337 113.743 149.275 105C149.24 100.115 153.179 94.0386 149.258 89.652C143.093 82.7551 118.595 84.1 117.272 95.0038C116.56 100.873 123.047 108.158 124.71 114C129.821 131.96 134.46 150.044 139.579 168C141.289 174 142.941 186.777 151.958 184.667C156.629 183.573 158.061 177.995 159.279 174C162.688 162.818 166.369 151.373 169 140M249 86.6373C218.97 95.1701 215.467 139.112 226.312 163C233.196 178.16 248.891 189.127 266 184.211C296.551 175.432 299.877 133.25 288.822 109C281.679 93.3315 267.116 81.4897 249 86.6373M319 140C326.529 146.622 327.67 161.774 331.053 171C331.96 173.474 333.535 180.364 337 180.364C340.878 180.364 341.912 172.677 342.72 170C345.453 160.937 347.332 147.06 355 141C355 148.727 356.625 158.573 354.348 166C352.916 170.67 347.875 175.484 351.179 180.606C355.968 188.029 381.474 187.603 383.667 177.985C385.011 172.086 378.787 166.069 378.171 160C376.586 144.414 376.939 128.591 378.09 113C378.612 105.93 386.646 97.9672 382.821 91.108C378.9 84.0764 364.593 84.3895 359.213 89.3032C351.029 96.7779 346.99 116.522 344 127C327.582 118.464 337.745 84.3931 313 86.0895C307.706 86.4524 299.824 87.8236 298.478 94.0154C297.064 100.515 305.411 106.919 305.91 114C307.009 129.574 307.005 147.585 304.699 163C303.832 168.799 296.353 174.008 298.747 179.892C302.202 188.384 325.086 186.926 323.728 176.036C323.253 172.234 319.768 169.665 318.723 165.996C316.456 158.04 317.982 148.053 319 140M481 139C492.785 142.335 503.553 163.613 510.997 173C513.685 176.39 518.535 185.536 523.891 184.248C529.878 182.809 528.998 170.549 529 166C529.007 148.104 526.883 128.68 529.734 111C530.821 104.257 539.378 98.3645 536.257 91.1883C532.477 82.4946 507.519 83.3472 508.337 95C508.645 99.3804 512.758 102.099 514.262 105.999C516.439 111.644 515.36 120.286 514 126C498.288 113.49 487.658 78.8691 463.004 86.993C458.247 88.5606 454.79 92.8098 456.745 97.9606C458.332 102.141 462.355 104.528 463.695 109.001C468.147 123.859 465.384 141.764 464.985 157C464.791 164.422 455.568 172.093 459.18 178.956C464.34 188.761 490.161 186.829 486.562 173.039C485.569 169.234 482.004 166.799 480.804 162.996C478.494 155.677 480.06 146.439 481 139z"/>
<path style="fill:#ffffff; stroke:none;" d="M251.105 107.072C238.538 113.179 247.959 144.729 251.876 154C253.808 158.574 257.675 166.317 263.942 163.588C268.708 161.513 268.943 155.44 268.996 151C269.134 139.486 267.955 127.776 263.546 117C261.761 112.637 257.114 104.151 251.105 107.072z"/>
<path style="fill:#000000; stroke:none;" d="M557 118C558.439 126.074 564.652 137.636 573 140L560 118L557 118M96 123C93.0437 126.241 79.6359 146.198 91 146L96 123M101 143L101.674 156L98 171C106.146 165.442 105.999 151.227 103 143L101 143M554 154C556.274 161.37 563.164 174.012 572 173L554 154M582 161C579.218 170.501 584.311 193.734 597 193C588.676 182.634 584.283 174.729 584 161L582 161M88 173C88.6788 185.399 76.8524 184.077 74 194C82.8592 190.082 94.6522 184.249 90 173L88 173M111 179C107.687 190.209 108.612 208.852 112 220L113 220L113 179L111 179M163 198L180 223C179.505 213.461 173.057 200.03 163 198M542 198C542.38 206.315 546.266 217.526 555 220L545 198L542 198M568 198C565.296 205.221 563.219 225.18 575 225C568.852 214.993 569.768 209.249 570 198L568 198M89 205L87 228L90 228C90.9061 219.144 95.8797 213.713 91 205L89 205M605 207L609.677 221L614 239L615 239C618.318 227.75 611.159 216.99 607 207L605 207M497 209L507.528 220.018L516 231C514.436 220.566 507.158 211.989 497 209M525 209C525.967 221.255 523.971 240.383 537 247L538 246C531.826 232.502 529.191 224.086 528 209L525 209M590 214C591.146 221.643 595.788 233.055 605 232L605 231C598.986 226.405 595.024 221.342 593 214L590 214M135 215C132.681 224.184 137.121 237.874 139.374 247C140.391 251.121 140.652 255.476 145 257L137 215L135 215M71 219L64 243C73.2962 241.083 76.3782 226.099 71 219M482 226C480.71 236.209 482.297 243.453 486 253L488 253L489 252L484 226L482 226M164 231L163 256C170.632 251.348 168.814 238.362 167 231L164 231M551 235C551.168 243.082 553.678 252.042 562 255L554 235L551 235M113 245C109.888 251.567 106.69 257.608 100.961 262.331C96.2522 266.212 87.8971 269.154 88 276C100.401 267.831 110.484 260.197 116 246L113 245M584 250C586.039 260.981 584.747 270.555 596 277L588.742 264L587 250L584 250M603 251L607 280L609 280C611.425 269.842 611.244 259.225 606 250L603 251M233 251.424C227.803 252.107 218.314 250.091 215.897 256.059C213.244 262.611 219.78 268.477 219.985 275C220.55 293.041 219.548 311.02 218.985 329C218.778 335.582 210.58 343.419 215.742 349.682C219.861 354.68 239.973 352.802 246 351.775C258.073 349.718 262.033 334.069 263.999 324C268.858 299.12 270.021 246.564 233 251.424M289 251.653C280.652 254.269 275.989 263.358 273.24 271C266.583 289.504 267.105 313.303 272.721 332C276.01 342.948 284.589 356.551 298 352.347C306.938 349.545 311.753 339.278 314.14 331C319.567 312.173 319.668 291.764 313.656 273C310.183 262.16 302.987 247.268 289 251.653M337 306C346.151 311.19 352.102 330.698 356.753 340C359.32 345.134 361.095 351.252 367 353C373.126 331.2 368.054 305.508 369.039 283C369.391 274.971 375.312 266.44 374.577 259.001C373.694 250.065 359.332 247.618 355.894 256.055C353.47 262.006 358.045 266.562 359.443 272C360.993 278.028 360.426 286.009 359 292C352.181 283.057 347.31 272.033 342.248 262C339.657 256.866 337.546 251.266 330.996 251.059C325.524 250.887 320.351 254.072 320.203 260C320.067 265.451 324.516 269.75 325.532 275C327.495 285.149 327.413 297.66 326.961 308C326.645 315.21 327.123 323.985 325.61 331C324.419 336.518 320.756 341.009 322.434 346.985C324.589 354.663 336.957 354.983 340.142 347.895C343.07 341.379 337.85 335.255 336.874 329C335.639 321.085 336.661 313.885 337 306M383.213 251.801C370.525 256.264 381.827 280.4 381.917 288C381.974 292.755 379.682 296.528 378.653 300.999C378.143 303.214 378.493 307.715 381.954 306.654C385.837 305.464 387.214 299.323 388.333 296C391.694 286.013 394.225 274.567 392.561 264C391.883 259.696 389.778 249.492 383.213 251.801M408 272L409 272C413.263 288.475 411.748 310.126 409.826 327C409.053 333.777 401.977 338.851 404.742 345.995C408.613 355.997 429.976 356.12 432.452 344.985C433.972 338.149 427.664 333.541 427.094 327C425.549 309.277 427 290.795 427 273C432.011 275.853 431.91 288.133 437.91 288.133C441.553 288.133 442.317 282.676 442.7 280C443.549 274.071 442.628 254.132 435.775 251.694C429.334 249.401 418.378 253.866 411 252.675C408.31 252.241 405.007 250.546 402.394 252.068C395.375 256.155 392.158 280.483 397.089 286.663C402.591 293.56 407.013 275.033 408 272M497 252L505 276L506 276C508.669 266.972 504.95 258.512 500 251L497 252M535 260C535.008 272.651 540.007 290.34 554 294L543.272 280L537 260L535 260z"/>
<path style="fill:#ffffff; stroke:none;" d="M238.302 268.137C234.311 268.981 236 280.029 236 283L236 324C236 327.167 234.557 337.165 240.066 336.534C245.232 335.942 246.899 328.102 247.56 324C249.767 310.301 249.386 295.658 247.079 282C246.412 278.047 244.532 266.818 238.302 268.137M289.379 273.176C285.823 274.829 285.309 281.654 285.09 285C284.363 296.125 286.682 309.174 289.236 320C289.984 323.169 292.421 333.123 297.574 330.673C301.141 328.977 300.957 322.244 300.996 319C301.136 307.291 300.454 295.399 297.522 284C296.753 281.012 294.255 270.909 289.379 273.176z"/>
<path style="fill:#000000; stroke:none;" d="M68 273C66.6343 280.042 59.4312 303.301 73 302L73 300C63.6666 294.551 69.9083 281.453 71 273L68 273M571 275C568.046 290.91 571.113 305.525 580 319L582 319C582.903 313.25 576.909 307.564 575.093 302C572.221 293.201 572.862 284.001 574 275L571 275M131 278C128.75 285.683 130.836 299.465 138 304L133 278L131 278M522 287C520.192 294.867 523.705 305.891 531 310L525 287L522 287M614 289C616.156 293.619 619.365 297.947 620.467 303C621.463 307.566 619.35 311.372 624 314L625 313L617 288L614 289M164 289C164.524 293.957 159.727 309.111 166 309L167 289L164 289M488 289C489.701 300.563 495.007 322.995 511 319L511 318C497.171 312.659 494.151 302.745 491 289L488 289M92 295C88.5396 302.77 84.2252 311.383 84.0147 320C83.9194 323.898 83.0998 329.086 88 329C84.7053 316.128 92.9247 307.316 94 295L92 295M592 295C592.928 304.059 598.739 313.986 607 318L608 315L594 295L592 295M552 308C550.874 316.909 549.673 329.694 561 332L554 308L552 308M473 311C473.379 319.263 479.577 329.91 489 329C483.883 322.804 476.959 319.829 476 311L473 311M115 319C111 326.83 107.211 341.735 117 347L114.047 332L117 319L115 319M564 321C564.072 329.57 568.376 342.216 579 341L579 339L564 321M525 324C518.115 334.302 522.365 344.741 527 355L529 355L530 354L524.329 337L525 324M171 328L177 350C178.045 342.68 178.363 331.828 171 328M64 329C60.7135 336.001 54.1102 352.571 65 356C61.3518 345.034 63.9421 339.696 67 329L64 329M156 330C154.161 337.411 151.926 354.306 161 357L158 330L156 330M604 335C601.409 343.765 602.566 364.114 614 366L607.108 352L606 335L604 335M129 337L130 365L133 365L129 337M499 339C500.861 351.6 504.06 357.029 498 369C511.929 368.367 503.738 346.514 502 339L499 339M477 351C474.962 357.898 476.15 369.408 484 372L477 351M581 351C577.432 362.284 579.896 377.322 593 381C589.254 368.709 580.139 366.923 584 352L581 351M551 354C551 367.995 555.993 390.259 575 389C570.333 382.957 562.51 380.896 557.8 374.829C553.115 368.794 554 361.172 554 354L551 354M94 395L95 391C82.8872 385.228 82.7132 370.347 88 360C82.253 359.909 81.1557 366.06 81.054 371C80.8632 380.272 85.3731 390.965 94 395M162 374C160.66 381.926 162.622 393.067 171 396L164 374L162 374M118 400L121 376C113.365 378.472 110.896 395.85 118 400M140 376C140 381.703 137.564 399.145 146 399L143 376L140 376M526 376C527.938 388.414 541.211 395.749 553 396C547.279 386.914 533.306 388.981 529 376L526 376M493 381C490.585 389.807 497.584 397.372 506 399L495 381L493 381M290.012 404.971C282.283 406.587 283.027 418.213 282.999 424C282.907 442.924 276.816 463.736 272.126 482C270.51 488.292 261.262 497.12 266.742 503.566C269.869 507.244 279.983 507.238 283.106 503.566C288.495 497.231 279.843 492.077 281.801 486.059C283.579 480.592 294.157 480.51 296.802 485.228C299.217 489.538 294.209 493.637 294.218 497.999C294.237 507.464 308.458 507.151 314.985 505.606C320.201 504.371 323.05 499.101 321.258 494C313.377 471.566 309.346 448.124 302.709 425C301.207 419.766 298.084 403.282 290.012 404.971M371 411C366.575 404.809 354.304 401.967 350.746 411.044C348.831 415.93 352.856 420.177 352.855 425C352.853 433.919 349.174 444.758 346 453C342.524 445.899 338.978 432.972 339.383 425C339.578 421.168 342.063 417.931 341.848 414.001C341.151 401.263 317.953 402.828 315.395 414.015C313.839 420.822 320.089 425.646 321.572 432C325.822 450.218 329.209 468.681 333.003 487C333.807 490.883 335.954 508.661 342.727 505.673C348.433 503.155 349.305 487.38 350.626 482C355.592 461.775 356.535 432.268 371 417C381.089 435.968 377.169 462.981 375.957 484C375.619 489.864 369.206 496.026 371.746 501.852C374.608 508.416 395.85 504.77 402 505.039C404.82 505.163 408.948 506.671 411.487 504.958C417.006 501.233 417.419 483.956 416.906 478.001C416.675 475.322 414.364 468.893 411.16 473.337C408.305 477.298 403.178 499.041 393.603 487.682C390.821 484.381 390.283 467.924 393.012 464.466C396 460.68 397.815 468.267 398.046 469.995C398.315 472.013 398.628 473.998 399 476C403.953 474.436 403.791 470.629 404.424 466C405.593 457.441 408.22 437.341 400 432C398.366 435.394 398.8 443.995 395.455 445.94C392.424 447.702 391.233 442.982 391.059 440.998C390.631 436.147 389.496 426.199 393.514 422.604C402.315 414.731 405.223 432.229 410.169 433.079C413.663 433.679 413.917 428.16 413.985 426C414.229 418.235 413.866 410.893 410 404C400.996 406.457 375.645 403.428 371 411M478 404L475.25 419L469 432C479.962 426.842 478.612 415.027 481 405L478 404M223 405.522C217.432 406.664 212.269 409.849 211.819 416.001C211.445 421.104 215.569 424.962 215.945 430C217.208 446.904 217.369 465.142 215.906 482C215.28 489.212 206.906 497.061 214.228 503.566C219.869 508.578 233.393 506.853 235.566 498.995C237.712 491.241 231.885 480.528 232.004 472C232.074 466.978 233.634 461.711 239.942 463.323C245.028 464.622 244.018 470.959 243.999 475C243.94 487.504 232.576 510.484 255.999 505.656C261.605 504.5 264.765 499.622 263.718 494C259.873 473.337 259.34 452.557 260.015 431C260.233 424.044 268.201 414.795 261.682 408.433C256.321 403.201 242.689 403.981 240.434 412.015C238.892 417.507 252.056 448.851 236.109 444.677C231.448 443.458 231.964 437.793 232.004 434C232.105 424.452 244.458 401.122 223 405.522M514 408L514 410C523.103 414.775 523.83 422.965 522 432C532.004 426.75 524.308 407.625 514 408M544 407L542 428C549.762 424.12 549.556 412.856 544 407M489 412L490 435C496.437 428.872 494.79 419.485 492 412L489 412z"/>
<path style="fill:#ffffff; stroke:none;" d="M289 444L285 464L294 464C293.946 457.424 293.013 449.386 289 444z"/>
<path style="fill:#000000; stroke:none;" d="M214 664L244 666C247.153 654.78 249.182 642.324 246 631L244 631C242.741 634.962 238.905 656.516 230.603 648.393C226.289 644.171 229 628.742 229 623L235 637L236 637C240.768 625.701 241.367 605.15 236 594L235 594L229 609C227.816 602.623 226.786 594.366 228.724 588.044C230.763 581.392 236.857 584.14 239.199 589.014C240.28 591.263 240.986 593.714 242 596L244 596C245.552 590.798 248.224 571.135 241.686 568.288C238.594 566.941 232.481 569.898 229 569.985C225.331 570.077 216.748 568.359 214.179 571.603C209.953 576.94 216.835 587.887 216.985 594C217.381 610.118 218.044 626.919 216.91 643C216.369 650.681 212.542 656.119 214 664M376 666C378.354 654.591 380.758 642.584 378 631L376 631C374.651 634.596 374.102 638.341 372.96 641.999C371.683 646.089 364.925 654.444 361.603 646.852C358.892 640.653 361 629.727 361 623L369 636C370.669 622.793 373.343 606.663 368 594L367 594L364 609L361 609C359.84 602.753 358.667 594.239 360.573 588.045C362.349 582.271 368.014 583.623 370.559 588.055C371.984 590.536 372.706 593.437 374 596L376 596C377.229 590.838 379.908 571.023 373.686 568.287C370.53 566.899 364.477 569.807 361 569.961C357.303 570.124 348.77 568.332 346.179 571.603C342.125 576.723 348.286 586.405 348.83 592C350.397 608.115 350.396 626.885 348.83 643C348.304 648.421 342.129 658.628 346.728 663.232C349.084 665.592 353.125 664.243 356.015 664.079C363.037 663.679 369.158 664.994 376 666M261 621C271.233 629.936 276.089 653.338 281 666L283 666C286.755 658.199 286 648.478 286 640C286 624.671 285.796 609.327 286.004 594C286.101 586.861 292.552 578.11 288.417 571.264C282.77 561.914 273.788 572.349 275.39 580C277.365 589.439 278.412 597.244 278 607C271.992 598.489 268.978 587.581 264.988 578C263.406 574.201 261.681 568.873 256.957 568.272C250.716 567.478 247.648 573.565 248.369 579C249.095 584.476 252.036 589.348 252.715 595C254.379 608.876 253.329 624.027 252.985 638C252.826 644.483 248.794 650.739 249.228 657C249.713 663.983 259.243 670.236 263.142 661.867C266.235 655.227 261.191 647.727 261.015 641C260.84 634.342 261 627.66 261 621M299.001 568.537C292.787 569.978 290.312 574.958 291.329 581C294.467 599.63 296.221 617.858 294.91 637C294.442 643.846 290.895 651.332 291.282 657.999C291.644 664.229 297.421 666.758 302.999 665.463C308.526 664.179 311.533 659.62 310.762 654C310.188 649.823 307.653 646.265 307.174 642C305.449 626.632 306.337 609.453 307.039 594C307.307 588.114 311.099 582.787 310.852 577C310.572 570.433 305.177 567.104 299.001 568.537M315 627L314 627C310.45 635.414 310.977 652.055 316.008 659.957C323.176 671.213 336.06 664.981 340.07 655C344.895 642.991 345.496 623.899 340.096 612C336.915 604.991 322.834 597.207 327.934 588.257C331.024 582.835 338.058 599.418 341 601C344.147 593.541 344.114 580.303 339.697 573.162C336.401 567.834 324.887 566.793 320.789 571.344C309.478 583.903 310.793 611.007 318.416 625C321.394 630.468 329.726 635.211 329.558 641.999C329.432 647.058 324.822 648.92 321.652 644.922C317.817 640.086 317.592 632.574 315 627M382 627C379.455 635.609 379.357 651.961 384.279 659.826C391.714 671.709 405.235 664.678 408.78 654C412.995 641.305 414.027 624.479 408.471 612C403.595 601.052 392.708 598.567 397 585L407 601L409 601C413.531 591.584 410.477 579.329 407 570C401.507 570.305 396.213 566.361 391.043 569.742C384.711 573.884 382.518 583.949 382.025 591C380.863 607.618 382.595 621.081 393.895 634C396.001 636.407 401.381 647.793 393.851 647.793C386.64 647.793 386.233 631.03 382 627M194 629C215.237 633.864 213.287 595.35 210.346 583C209.163 578.036 207.17 571.81 201.96 569.743C197.845 568.111 180.674 568.867 178.742 573.148C175.889 579.471 181.955 586.488 181.999 593C182.113 609.631 182.478 626.376 181.985 643C181.808 648.934 177.311 655.034 179.742 660.945C183.71 670.594 199.225 665.056 197.431 655C195.794 645.826 194 638.6 194 629z"/>
<path style="fill:#ffffff; stroke:none;" d="M195 584C192.597 592.129 192.597 605.871 195 614C203.502 609.424 200.996 591.134 197 584L195 584M187 806C193.591 854.945 227.442 909.19 278 919C278 893.304 280.696 867.48 276.414 842C275.557 836.903 268.355 819.898 276.105 817.89C284.354 815.754 286.856 835.861 287.715 841C292.082 867.144 290 894.57 290 921C331.434 921 349.841 887.169 364.421 853C368.901 842.501 375.855 830.428 377 819C315.061 807.33 249.682 810.954 187 806z"/>
</svg>
